/* XPM */
static char *diffpdf[] = {
/* columns rows colors chars-per-pixel */
"32 32 124 2",
"   c #151524",
".  c #222222",
"X  c #2F2F2F",
"o  c #2B2B3A",
"O  c #313131",
"+  c #3B3C3C",
"@  c #5C3C3D",
"#  c #373746",
"$  c #383847",
"%  c #434343",
"&  c #4A4A4A",
"*  c #555656",
"=  c #5C5C5C",
"-  c #73584E",
";  c #7A5F4F",
":  c #646464",
">  c #6E6E6E",
",  c #70706F",
"<  c #6D6D7B",
"1  c #717171",
"2  c #7C7C7C",
"3  c #A53326",
"4  c #AC3A22",
"5  c #AC3936",
"6  c #B34031",
"7  c #9D6238",
"8  c #94763E",
"9  c #997D3A",
"0  c #AC712E",
"q  c #CA413D",
"w  c #D44B3F",
"e  c #C9553C",
"r  c #CD6C3C",
"t  c #DA6732",
"y  c #D57436",
"u  c #D87734",
"i  c #DA7933",
"p  c #D47238",
"a  c #B14A4C",
"s  c #B55E42",
"d  c #BF5D45",
"f  c #B6544B",
"g  c #8A6E45",
"h  c #8F7341",
"j  c #907241",
"k  c #C66441",
"l  c #F06641",
"z  c #D06D6E",
"x  c #9F8137",
"c  c #B99D27",
"v  c #B0952C",
"b  c #A98C31",
"n  c #C6A81E",
"m  c #80807F",
"M  c #040482",
"N  c #1C1C81",
"B  c #1C1C8E",
"V  c #1F1F90",
"C  c #1F2191",
"Z  c #222286",
"A  c #2B2489",
"S  c #29298D",
"D  c #202091",
"F  c #372C90",
"G  c #35359A",
"H  c #383498",
"J  c #38389C",
"K  c #7B7B89",
"L  c #5C5CAE",
"P  c #D37A8A",
"I  c #828282",
"U  c #888887",
"Y  c #8A8B8B",
"T  c #949594",
"R  c #989897",
"E  c #9A9A9A",
"W  c #A78788",
"Q  c #A58A8B",
"!  c #9999A8",
"~  c #A4A4A3",
"^  c #A7A8A8",
"/  c #ABABAB",
"(  c #B2B2B2",
")  c #B9B9B7",
"_  c #BFBFBE",
"`  c #EE8A8C",
"'  c #F88F84",
"]  c #F18C8B",
"[  c #F59387",
"{  c #F89686",
"}  c #F4928A",
"|  c #F59291",
" . c #FF9E91",
".. c #EEB2B2",
"X. c #C0C0BF",
"o. c #C3C3C2",
"O. c #D0D0CF",
"+. c #C8C8D6",
"@. c #CBCBD9",
"#. c #E2C6D6",
"$. c #E5D7D7",
"%. c #C6C6E2",
"&. c #C8C8E4",
"*. c #D5D5E4",
"=. c #D8D8E7",
"-. c #D5D5E9",
";. c #DDDDED",
":. c #E2D4E3",
">. c #E2DFED",
",. c #E4E5E5",
"<. c #E8E8E7",
"1. c #E1E1EF",
"2. c #E6E9E9",
"3. c #ECECEC",
"4. c #F1E3E3",
"5. c #FFE3E4",
"6. c #FFE9E9",
"7. c #F0F0EF",
"8. c #E4E4F2",
"9. c #EEF0F0",
"0. c #F3F3F3",
"q. c #FFF3F3",
"w. c #FFFFFF",
"e. c None",
/* pixels */
"M B B D B D D B B B D D B e.e.e.e.e.e.e.e.e.e.e.e.e.e.e.e.e.e.e.",
"B &.8.8.8.1.8.1.8.8.8.1.=.L e.e.e.e.e.e.e.e.e.e.e.e.e.e.e.e.e.e.",
"B 1.w.w.w.w.w.w.w.w.w.w.w.8.L e.e.e.e.e.e.e.e.e.e.e.e.e.e.e.e.e.",
"D 8.w.w.w.w.w.w.w.w.w.w.w.w.8.L e.e.e.e.e.e.e.e.e.e.e.e.e.e.e.e.",
"B >.5.5.5.5.5.5.5.5.w.w.w.w.w.8.L e.e.e.e.e.e.e.e.e.e.e.e.e.e.e.",
"D #.l p p p d r k q Q ^ m Y U ) -.D B B D B D B V V V e.e.e.e.e.",
"C #.t 9 g b 9 9 c 4 @ * X + + > =.G &.8.8.8.1.8.8.8.=.L e.e.e.e.",
"D :. .] ` [ ' [ [ | $.3.<.<.,.0.8.J 8.w.w.w.w.w.w.w.w.8.L e.e.e.",
"V ;.2.,.9.2.,.2.0.3.w.2.<.,.,.w.1.G ;.w.w.w.w.w.w.w.w.w.8.L e.e.",
"D *.: + + & * * 1 O Y X . : = <.8.H #.5.5.5.5.6.w.w.w.w.w.8.L e.",
"V =.~ U 2 Y T Y ~ U U K I T Y O.8.A s s f r d q Q ^ m Y Y ) -.B ",
"V 1.w.w.w.w.w.w.w.w.w.w.w.w.w.w.8.A - 8 8 8 g 3 @ * X + + 1 =.D ",
"V =.E U ^ T / R Y E ( Y Y ( U X.-.F P ] ` } ` | $.3.<.,.,.7.8.B ",
"V *.m . X : + + > = * * & & + E 1.G *.2.,.2.w.2.q.,.,.,.<.w.1.D ",
"V ;.0.<.,.,.,.,.3.<.,.<.7.,.3.0.8.N $ & * * > O Y X . : = <.8.D ",
"V ;.<.,.,.3.7.<.<.3.3.<.,.7.,.0.8.S < Y T Y ~ U U I m T T O.8.V ",
"D *.= & & , : & & & : & + & > R 8.J 8.w.w.w.w.w.w.w.w.w.w.w.;.D ",
"D *.^ / Y Y I Y Y I E / U I T o.8.G ! T / R Y E ) Y Y ( U _ =.D ",
"V 8.w.w.w.w.w.6.6.4.5.5.5.q.w.w.8.Z o : + + 1 * * * & & + E ;.D ",
"B *.E ~ Y ^ Q w u u y y t z ,.0.1.G +.,.,.,.9.<.:.<.9.,.7.0.8.V ",
"D +.+ % . + W 6 v c n b 0 a U I =.G +.7.0.2.,.3.3.<.,.3.<.0.1.V ",
"V >.<.3.2.2.4.| } } { ] ' ..3.<.>.N $ 1 : & & & : & + & > R 8.V ",
"V 1.<.,.2.0.3.,.,.9.2.2.3.7.<.w.8.S K Y I Y Y I R ( Y I T o.8.V ",
"D +.% & X & * : . % * O & % O X.8.J 1.w.w.5.5.6.5.5.5.q.w.w.1.V ",
"D *.o.X.I Y / E U Y ( I ^ Y U <.8.S K ^ Q w r r f r e z ,.9.8.C ",
"B &.8.8.8.8.8.8.8.8.8.8.8.8.8.8.&.N   + W 5 ; h b h 7 a Y I =.V ",
"M B B D V D D D V V V V D V V G G G @.3.4.| ` { } ] ` ..3.,.;.V ",
"e.e.e.e.e.e.e.e.e.e.e.e.e.e.B &.+.+.,.9.3.,.,.7.2.2.7.9.3.w.8.V ",
"e.e.e.e.e.e.e.e.e.e.e.e.e.e.C +.% & X & * : . % * X & % X X.8.C ",
"e.e.e.e.e.e.e.e.e.e.e.e.e.e.C *.o._ I Y / E m Y ( m ^ Y U ,.8.V ",
"e.e.e.e.e.e.e.e.e.e.e.e.e.e.V &.8.8.8.8.8.8.8.8.8.8.8.8.8.8.&.B ",
"e.e.e.e.e.e.e.e.e.e.e.e.e.e.M C D D D D D D D D D D V V C V B M "
};
